# xmcd
#
# Track frame offsets:
#	183
#	13220
#	28958
#	47673
#	62713
#	81378
#	96358
#	110115
#	124430
#	139405
#
# Disc length: 2040 seconds
#
# Revision: 1
# Processed by: cddbd v1.5.2PL0 Copyright (c) Steve Scherf et al.
# Submitted via: audiograbber 1.83.01
#
DISCID=9b07f60a
DTITLE=Various Artist - Country Love
DYEAR=1989
DGENRE=Oldies
TTITLE0=Lee Greenwood - Touch And Go Crazy
TTITLE1=Barbara Mandrell - Sure Feels Good
TTITLE2=Exile - I Can't Get Close Enough
TTITLE3=Glen Cambell - I Have You
TTITLE4=Juice Newton - The Sweetest Thing (I've Ever Known)
TTITLE5=George Strait - You're Something Special To Me
TTITLE6=Larry Gatlin - Love Of A Lifetime
TTITLE7=Crystal Gayle - You Never Gave Up On Me
TTITLE8=Randy Vanwarmer - I Will Hold You
TTITLE9=Roy Clark - But, She Loves Me
EXTD=
EXTT0=
EXTT1=
EXTT2=
EXTT3=
EXTT4=
EXTT5=
EXTT6=
EXTT7=
EXTT8=
EXTT9=
PLAYORDER=
